<?xml version="1.0" encoding="utf-8"?>
<!-- Generator: Adobe Illustrator 23.0.3, SVG Export Plug-In . SVG Version: 6.00 Build 0)  -->
<svg version="1.1" id="Layer_1" xmlns="http://www.w3.org/2000/svg" xmlns:xlink="http://www.w3.org/1999/xlink" x="0px" y="0px"
	 viewBox="0 0 52.8 53" style="enable-background:new 0 0 52.8 53;" xml:space="preserve">
<style type="text/css">
	.st0{fill-rule:evenodd;clip-rule:evenodd;fill:#FFFFFF;}
</style>
<title>Asset 1hug</title>
<path class="st0" d="M28.5,1.5c0,0.4-0.2,0.7-0.5,1C27.8,2.8,27.4,3,27,3h-0.6c-0.4,0-0.8-0.2-1-0.5c-0.3-0.3-0.4-0.6-0.5-1l0.5-1
	l1-0.5l0.4,0.1L27,0l1,0.4C28.3,0.7,28.5,1.1,28.5,1.5 M33,0.9l1,0.4l0.5,1c0,0.4-0.2,0.7-0.5,1c-0.6,0.6-1.5,0.6-2,0.1
	c0,0,0,0-0.1-0.1c-0.6-0.6-0.6-1.5,0-2.1c0,0,0,0,0,0C32.2,1,32.6,0.8,33,0.9 M43.3,6.6c0.4,0,0.7,0.2,1,0.4l0.5,1
	c0,0.8-0.7,1.5-1.5,1.5c-0.8,0-1.5-0.7-1.5-1.5C41.7,7.2,42.4,6.6,43.3,6.6 M37.4,3.5c0.6-0.6,1.5-0.6,2,0c0,0,0,0,0,0l0.5,1
	c0,0.4-0.2,0.7-0.5,1c-0.6,0.6-1.5,0.6-2,0c0,0,0,0,0,0C36.8,4.9,36.8,4,37.4,3.5C37.4,3.4,37.4,3.4,37.4,3.5 M46.2,11.5
	c0.6-0.6,1.5-0.6,2,0c0,0,0,0,0,0l0.5,1c0,0.8-0.6,1.5-1.4,1.6c-0.8,0-1.5-0.6-1.6-1.4C45.7,12.3,45.9,11.8,46.2,11.5 M48.9,17
	c0.6-0.6,1.5-0.5,2,0.1s0.5,1.5,0,2.1c-0.6,0.6-1.5,0.5-2.1-0.1c-0.3-0.3-0.4-0.6-0.4-1C48.4,17.7,48.6,17.3,48.9,17 M50.2,22.8
	c0.6-0.6,1.5-0.6,2,0c0,0,0,0,0,0l0.5,1c0,0.8-0.7,1.5-1.5,1.5c-0.8,0-1.5-0.7-1.5-1.5C49.7,23.5,49.9,23.1,50.2,22.8 M52.7,29.9
	c0,0.4-0.1,0.8-0.5,1.1l-1,0.5c-0.8,0-1.5-0.7-1.5-1.5c0-0.8,0.7-1.5,1.5-1.5C52,28.5,52.6,29.1,52.7,29.9 M48.2,35.8
	c-0.1-0.8,0.6-1.6,1.4-1.6c0.8-0.1,1.6,0.6,1.6,1.4c0.1,0.8-0.6,1.6-1.4,1.6c-0.4,0-0.9-0.1-1.2-0.4C48.3,36.5,48.2,36.1,48.2,35.8
	 M47.8,39.9c0.6,0.6,0.6,1.5,0,2c0,0,0,0,0,0l-1,0.5c-0.8,0-1.5-0.6-1.6-1.4c0-0.8,0.6-1.5,1.4-1.6C47.1,39.4,47.5,39.6,47.8,39.9
	 M33.5,50.9L33,52c-0.6,0.6-1.5,0.5-2-0.1c-0.6-0.6-0.5-1.5,0.1-2c0.6-0.6,1.5-0.5,2.1,0.1C33.4,50.2,33.5,50.6,33.5,50.9
	 M43.8,44.4c0.3,0.3,0.4,0.6,0.5,1l-0.5,1c-0.6,0.6-1.5,0.6-2.1,0c-0.6-0.6-0.6-1.5,0-2.1S43.1,43.7,43.8,44.4
	C43.7,44.3,43.7,44.3,43.8,44.4 M38.8,49.9c-0.6,0.6-1.5,0.5-2-0.1s-0.5-1.5,0.1-2s1.5-0.5,2,0.1c0.3,0.3,0.4,0.7,0.4,1L38.8,49.9
	 M27.1,52.5c-0.3,0.3-0.7,0.5-1,0.5L25,52.5l-0.5-1c0-0.8,0.7-1.5,1.5-1.5s1.5,0.7,1.5,1.5L27.1,52.5 M21.5,1.1
	c0.6,0.6,0.6,1.5,0,2.1c0,0,0,0,0,0c-0.6,0.6-1.5,0.6-2,0.1c0,0,0,0-0.1-0.1c-0.6-0.6-0.6-1.5,0-2.1c0,0,0,0,0,0l1.1-0.4
	C20.8,0.6,21.2,0.8,21.5,1.1 M5.9,10.6c0.8,0,1.5,0.6,1.5,1.4c0,0.4-0.1,0.8-0.4,1.1c-0.6,0.6-1.5,0.6-2.1,0.1c0,0,0,0,0-0.1
	c-0.6-0.6-0.6-1.5,0-2.1C5.2,10.7,5.5,10.6,5.9,10.6 M1.5,17.3l0.5-1c0.6-0.6,1.5-0.6,2.1,0c0,0,0,0,0,0c0.6,0.6,0.6,1.5,0.1,2
	c0,0,0,0-0.1,0.1c-0.6,0.6-1.5,0.6-2.1,0c0,0,0,0,0,0C1.7,18.1,1.5,17.7,1.5,17.3 M0.5,22.1l1-0.5c0.4,0,0.8,0.2,1,0.5
	c0.6,0.6,0.6,1.5,0.1,2c0,0,0,0-0.1,0.1c-0.6,0.6-1.5,0.6-2.1,0c0,0,0,0,0,0C-0.1,23.7-0.1,22.8,0.5,22.1
	C0.5,22.2,0.5,22.2,0.5,22.1 M13.4,4.2l0.4-1c0.6-0.6,1.5-0.6,2.1,0c0,0,0,0,0,0c0.6,0.6,0.6,1.5,0.1,2c0,0,0,0-0.1,0.1
	c-0.6,0.6-1.5,0.6-2.1,0.1c0,0,0,0-0.1-0.1C13.5,5,13.4,4.6,13.4,4.2 M8.9,6.6c0.6-0.6,1.5-0.6,2.1,0c0.6,0.6,0.6,1.5,0,2.1l0,0
	c-0.6,0.6-1.5,0.6-2.1,0.1C8.6,8.4,8.4,8,8.4,7.6L8.9,6.6 M8.5,44c0.6-0.6,1.5-0.6,2.1-0.1s0.6,1.5,0.1,2.1
	c-0.3,0.3-0.7,0.5-1.1,0.5L8.5,46l-0.4-1C8.1,44.7,8.2,44.3,8.5,44 M7.1,40.5c0,0.4-0.2,0.7-0.4,1c-0.6,0.6-1.5,0.6-2.1,0
	c0,0,0,0,0,0l-0.4-1c0-0.4,0.1-0.9,0.4-1.1c0.6-0.6,1.5-0.6,2.1,0c0,0,0,0,0,0C6.9,39.7,7.1,40.1,7.1,40.5 M13.4,47.5
	c0.6-0.6,1.5-0.6,2.1,0s0.6,1.5,0,2.1c-0.6,0.6-1.5,0.6-2.1,0c0,0,0,0,0,0l-0.4-1C13,48.2,13.2,47.8,13.4,47.5 M19,49.7
	c0.6-0.6,1.5-0.6,2.1,0c0.6,0.6,0.6,1.5,0,2.1c-0.3,0.3-0.7,0.4-1,0.4l-1-0.5l-0.5-1C18.6,50.4,18.7,50.1,19,49.7 M2.5,28.2
	c0.6,0.6,0.6,1.5,0.1,2c0,0,0,0-0.1,0.1c-0.6,0.6-1.5,0.6-2.1,0c0,0,0,0,0,0L0,29.3c0-0.4,0.2-0.8,0.4-1C1,27.6,1.9,27.6,2.5,28.2
	C2.5,28.2,2.5,28.2,2.5,28.2 M1.8,34.1c0.6-0.6,1.5-0.6,2.1,0c0,0,0,0,0,0c0.6,0.6,0.6,1.5,0,2c0,0,0,0,0,0c-0.3,0.3-0.7,0.5-1,0.5
	l-1-0.5C1.2,35.6,1.2,34.7,1.8,34.1C1.8,34.1,1.8,34.1,1.8,34.1"/>
</svg>
