<?xml version="1.0" encoding="utf-8"?>
<!-- Generator: Adobe Illustrator 23.0.3, SVG Export Plug-In . SVG Version: 6.00 Build 0)  -->
<svg version="1.1" id="Layer_1" xmlns="http://www.w3.org/2000/svg" xmlns:xlink="http://www.w3.org/1999/xlink" x="0px" y="0px"
	 viewBox="0 0 402 402" style="enable-background:new 0 0 402 402;" xml:space="preserve">
<style type="text/css">
	.st0{fill:none;stroke:#FFFFFF;stroke-width:2;stroke-linecap:round;stroke-linejoin:round;}
</style>
<path class="st0" d="M342.5,59.6c35.7,35.7,55,78.2,58.1,127.4c0.3,4.6,0.4,9.3,0.4,14.1c0,27.3-4.8,52.6-14.3,76
	c-9.8,23.9-24.5,45.7-44.3,65.5c-39,39-86.2,58.5-141.5,58.5c-55.2,0-102.4-19.5-141.4-58.5C39.7,322.8,25,301,15.2,277.1
	C5.8,253.6,1,228.3,1,201c0-4.7,0.2-9.4,0.4-14.1c3.1-49.2,22.5-91.7,58.2-127.4C90.1,29,125.5,10.4,165.9,3.7l10-1.4L201,1
	C256.3,1,303.4,20.5,342.5,59.6z"/>
</svg>
