<?xml version="1.0" encoding="utf-8"?>
<!-- Generator: Adobe Illustrator 23.0.3, SVG Export Plug-In . SVG Version: 6.00 Build 0)  -->
<svg version="1.1" id="Layer_1" xmlns="http://www.w3.org/2000/svg" xmlns:xlink="http://www.w3.org/1999/xlink" x="0px" y="0px"
	 viewBox="0 0 400 400" style="enable-background:new 0 0 400 400;" xml:space="preserve">
<style type="text/css">
	.st0{fill-rule:evenodd;clip-rule:evenodd;fill:#FFFFFF;}
</style>
<path class="st0" d="M341.5,58.6c35.7,35.7,55,78.2,58.1,127.4c0.3,4.6,0.4,9.3,0.4,14.1c0,27.3-4.8,52.6-14.3,76
	c-9.8,23.9-24.5,45.7-44.3,65.5c-39,39-86.2,58.5-141.5,58.5c-55.2,0-102.4-19.5-141.4-58.5c-19.8-19.8-34.5-41.6-44.3-65.5
	C4.8,252.6,0,227.3,0,200c0-4.7,0.2-9.4,0.4-14.1c3.1-49.2,22.5-91.7,58.2-127.4C89.1,28.1,124.5,9.5,164.9,2.8l10-1.4L200,0
	C255.3,0,302.4,19.5,341.5,58.6"/>
</svg>
