<svg xmlns="http://www.w3.org/2000/svg" viewBox="0 0 22 22"><defs><style>.cls-1{fill:#fff;}.cls-1,.cls-3{fill-rule:evenodd;}.cls-2{fill:none;stroke:#001234;stroke-linecap:round;stroke-linejoin:round;stroke-width:2px;}.cls-3{fill:#f03;}</style></defs><title>Asset 1podcast</title><g id="Layer_2" data-name="Layer 2"><g id="Layer_1-2" data-name="Layer 1"><path class="cls-1" d="M18.07,3.93A9.64,9.64,0,0,1,21,11a9.64,9.64,0,0,1-2.93,7.07A9.64,9.64,0,0,1,11,21a9.64,9.64,0,0,1-7.07-2.93A9.64,9.64,0,0,1,1,11,9.64,9.64,0,0,1,3.93,3.93,9.64,9.64,0,0,1,11,1a9.64,9.64,0,0,1,7.07,2.93"/><path class="cls-2" d="M18.05,3.9A9.67,9.67,0,0,1,21,11a9.49,9.49,0,0,1-2.95,7.05A9.49,9.49,0,0,1,11,21a9.67,9.67,0,0,1-7.1-2.95A9.6,9.6,0,0,1,1,11,9.9,9.9,0,0,1,11,1,9.6,9.6,0,0,1,18.05,3.9Z"/><path class="cls-3" d="M18.2,9q0,2.36-3,5.4l-2.75,2.9L10.6,19,10,18.7h-.1l-2.7-2.3L5.3,14.1A8.51,8.51,0,0,1,3.45,8.9c0-1.8.58-2.7,1.75-2.7q2.1,0,4.6,5.15c.27-2.9,1.73-4.68,4.4-5.35s4,.32,4,2.95"/></g></g></svg>